<mxfile host="app.diagrams.net" modified="2021-03-10T22:34:55.410Z" agent="5.0 (Macintosh; Intel Mac OS X 10_15_6) AppleWebKit/605.1.15 (KHTML, like Gecko) Version/14.0.3 Safari/605.1.15" etag="b5glF-Yo4IjynYkVtnzg" version="14.4.6" type="github">
  <diagram id="snXYCvAZyrRcM13G1VJc" name="Page-1">
    <mxGraphModel dx="4026" dy="1384" grid="1" gridSize="10" guides="1" tooltips="1" connect="1" arrows="1" fold="1" page="1" pageScale="1" pageWidth="827" pageHeight="1169" math="0" shadow="0">
      <root>
        <mxCell id="0" />
        <mxCell id="1" parent="0" />
        <mxCell id="bovtpuAGcGGz9S-_iwCI-4" value="Rental DVD Farley e Matheus" style="strokeWidth=1;shadow=0;dashed=0;align=center;html=1;shape=mxgraph.mockup.containers.window;align=left;verticalAlign=top;spacingLeft=8;strokeColor2=#008cff;strokeColor3=#c4c4c4;fontColor=#666666;mainText=;fontSize=17;labelBackgroundColor=none;" vertex="1" parent="1">
          <mxGeometry x="139" y="130" width="550" height="380" as="geometry" />
        </mxCell>
        <mxCell id="bovtpuAGcGGz9S-_iwCI-5" value="Touch to&amp;nbsp;&lt;font style=&quot;font-size: 27px&quot;&gt;&lt;br&gt;Rent&lt;/font&gt;" style="whiteSpace=wrap;html=1;aspect=fixed;fillColor=#1ba1e2;strokeColor=#006EAF;fontColor=#ffffff;" vertex="1" parent="1">
          <mxGeometry x="220" y="320" width="120" height="120" as="geometry" />
        </mxCell>
        <mxCell id="bovtpuAGcGGz9S-_iwCI-6" value="Touch to&lt;br&gt;&lt;font style=&quot;font-size: 30px&quot;&gt;Return&lt;/font&gt;" style="whiteSpace=wrap;html=1;aspect=fixed;fillColor=#1ba1e2;strokeColor=#006EAF;fontColor=#ffffff;" vertex="1" parent="1">
          <mxGeometry x="480" y="320" width="120" height="120" as="geometry" />
        </mxCell>
        <mxCell id="bovtpuAGcGGz9S-_iwCI-7" value="&lt;font color=&quot;#007fff&quot;&gt;Credit and Debit Cards accepted&amp;nbsp;&lt;/font&gt;" style="text;html=1;strokeColor=none;fillColor=none;align=center;verticalAlign=middle;whiteSpace=wrap;rounded=0;" vertex="1" parent="1">
          <mxGeometry x="306" y="280" width="216" height="20" as="geometry" />
        </mxCell>
        <mxCell id="bovtpuAGcGGz9S-_iwCI-8" value="&lt;font style=&quot;font-size: 31px&quot; color=&quot;#007fff&quot;&gt;FREE&lt;/font&gt;" style="text;html=1;strokeColor=none;fillColor=none;align=center;verticalAlign=middle;whiteSpace=wrap;rounded=0;" vertex="1" parent="1">
          <mxGeometry x="220" y="170" width="100" height="90" as="geometry" />
        </mxCell>
        <mxCell id="bovtpuAGcGGz9S-_iwCI-9" value="Your first Rental &amp;nbsp;is FREE&amp;nbsp;&lt;br&gt;Use a coupon code: &lt;font color=&quot;#ff8000&quot;&gt;FREEMOVIE&lt;/font&gt;" style="text;html=1;strokeColor=none;fillColor=none;align=center;verticalAlign=middle;whiteSpace=wrap;rounded=0;" vertex="1" parent="1">
          <mxGeometry x="400" y="200" width="190" height="40" as="geometry" />
        </mxCell>
        <mxCell id="bovtpuAGcGGz9S-_iwCI-10" value="&lt;span style=&quot;color: rgb(102 , 102 , 102)&quot;&gt;Rental DVD Farley e Matheus&lt;/span&gt;" style="strokeWidth=1;shadow=0;dashed=0;align=center;html=1;shape=mxgraph.mockup.containers.window;align=left;verticalAlign=top;spacingLeft=8;strokeColor2=#008cff;strokeColor3=#c4c4c4;mainText=;fontSize=17;labelBackgroundColor=none;" vertex="1" parent="1">
          <mxGeometry x="-200" y="610" width="550" height="410" as="geometry" />
        </mxCell>
        <mxCell id="bovtpuAGcGGz9S-_iwCI-13" value="" style="edgeStyle=segmentEdgeStyle;endArrow=classic;html=1;" edge="1" parent="1" source="bovtpuAGcGGz9S-_iwCI-10" target="bovtpuAGcGGz9S-_iwCI-5">
          <mxGeometry width="50" height="50" relative="1" as="geometry">
            <mxPoint x="390" y="600" as="sourcePoint" />
            <mxPoint x="440" y="550" as="targetPoint" />
            <Array as="points">
              <mxPoint x="30" y="550" />
              <mxPoint x="280" y="550" />
            </Array>
          </mxGeometry>
        </mxCell>
        <mxCell id="bovtpuAGcGGz9S-_iwCI-14" value="&lt;span style=&quot;color: rgb(102 , 102 , 102)&quot;&gt;Rental DVD Farley e Matheus&lt;/span&gt;" style="strokeWidth=1;shadow=0;dashed=0;align=center;html=1;shape=mxgraph.mockup.containers.window;align=left;verticalAlign=top;spacingLeft=8;strokeColor2=#008cff;strokeColor3=#c4c4c4;mainText=;fontSize=17;labelBackgroundColor=none;" vertex="1" parent="1">
          <mxGeometry x="580" y="610" width="550" height="390" as="geometry" />
        </mxCell>
        <mxCell id="bovtpuAGcGGz9S-_iwCI-15" value="" style="edgeStyle=segmentEdgeStyle;endArrow=classic;html=1;exitX=0.466;exitY=-0.008;exitDx=0;exitDy=0;exitPerimeter=0;" edge="1" parent="1" source="bovtpuAGcGGz9S-_iwCI-14" target="bovtpuAGcGGz9S-_iwCI-6">
          <mxGeometry width="50" height="50" relative="1" as="geometry">
            <mxPoint x="360" y="630" as="sourcePoint" />
            <mxPoint x="410" y="580" as="targetPoint" />
            <Array as="points">
              <mxPoint x="836" y="550" />
              <mxPoint x="540" y="550" />
            </Array>
          </mxGeometry>
        </mxCell>
        <mxCell id="bovtpuAGcGGz9S-_iwCI-31" value="" style="shape=table;html=1;whiteSpace=wrap;startSize=0;container=1;collapsible=0;childLayout=tableLayout;" vertex="1" parent="1">
          <mxGeometry x="-190" y="720" width="530" height="240" as="geometry" />
        </mxCell>
        <mxCell id="bovtpuAGcGGz9S-_iwCI-32" value="" style="shape=partialRectangle;html=1;whiteSpace=wrap;collapsible=0;dropTarget=0;pointerEvents=0;fillColor=none;top=0;left=0;bottom=0;right=0;points=[[0,0.5],[1,0.5]];portConstraint=eastwest;" vertex="1" parent="bovtpuAGcGGz9S-_iwCI-31">
          <mxGeometry width="530" height="80" as="geometry" />
        </mxCell>
        <mxCell id="bovtpuAGcGGz9S-_iwCI-33" value="" style="shape=partialRectangle;html=1;whiteSpace=wrap;connectable=0;fillColor=none;top=0;left=0;bottom=0;right=0;overflow=hidden;" vertex="1" parent="bovtpuAGcGGz9S-_iwCI-32">
          <mxGeometry width="177" height="80" as="geometry" />
        </mxCell>
        <mxCell id="bovtpuAGcGGz9S-_iwCI-34" value="" style="shape=partialRectangle;html=1;whiteSpace=wrap;connectable=0;fillColor=none;top=0;left=0;bottom=0;right=0;overflow=hidden;" vertex="1" parent="bovtpuAGcGGz9S-_iwCI-32">
          <mxGeometry x="177" width="176" height="80" as="geometry" />
        </mxCell>
        <mxCell id="bovtpuAGcGGz9S-_iwCI-35" value="" style="shape=partialRectangle;html=1;whiteSpace=wrap;connectable=0;fillColor=none;top=0;left=0;bottom=0;right=0;overflow=hidden;" vertex="1" parent="bovtpuAGcGGz9S-_iwCI-32">
          <mxGeometry x="353" width="177" height="80" as="geometry" />
        </mxCell>
        <mxCell id="bovtpuAGcGGz9S-_iwCI-36" value="" style="shape=partialRectangle;html=1;whiteSpace=wrap;collapsible=0;dropTarget=0;pointerEvents=0;fillColor=none;top=0;left=0;bottom=0;right=0;points=[[0,0.5],[1,0.5]];portConstraint=eastwest;" vertex="1" parent="bovtpuAGcGGz9S-_iwCI-31">
          <mxGeometry y="80" width="530" height="80" as="geometry" />
        </mxCell>
        <mxCell id="bovtpuAGcGGz9S-_iwCI-37" value="" style="shape=partialRectangle;html=1;whiteSpace=wrap;connectable=0;fillColor=none;top=0;left=0;bottom=0;right=0;overflow=hidden;" vertex="1" parent="bovtpuAGcGGz9S-_iwCI-36">
          <mxGeometry width="177" height="80" as="geometry" />
        </mxCell>
        <mxCell id="bovtpuAGcGGz9S-_iwCI-38" value="" style="shape=partialRectangle;html=1;whiteSpace=wrap;connectable=0;fillColor=none;top=0;left=0;bottom=0;right=0;overflow=hidden;" vertex="1" parent="bovtpuAGcGGz9S-_iwCI-36">
          <mxGeometry x="177" width="176" height="80" as="geometry" />
        </mxCell>
        <mxCell id="bovtpuAGcGGz9S-_iwCI-39" value="" style="shape=partialRectangle;html=1;whiteSpace=wrap;connectable=0;fillColor=none;top=0;left=0;bottom=0;right=0;overflow=hidden;" vertex="1" parent="bovtpuAGcGGz9S-_iwCI-36">
          <mxGeometry x="353" width="177" height="80" as="geometry" />
        </mxCell>
        <mxCell id="bovtpuAGcGGz9S-_iwCI-40" value="" style="shape=partialRectangle;html=1;whiteSpace=wrap;collapsible=0;dropTarget=0;pointerEvents=0;fillColor=none;top=0;left=0;bottom=0;right=0;points=[[0,0.5],[1,0.5]];portConstraint=eastwest;" vertex="1" parent="bovtpuAGcGGz9S-_iwCI-31">
          <mxGeometry y="160" width="530" height="80" as="geometry" />
        </mxCell>
        <mxCell id="bovtpuAGcGGz9S-_iwCI-41" value="" style="shape=partialRectangle;html=1;whiteSpace=wrap;connectable=0;fillColor=none;top=0;left=0;bottom=0;right=0;overflow=hidden;" vertex="1" parent="bovtpuAGcGGz9S-_iwCI-40">
          <mxGeometry width="177" height="80" as="geometry" />
        </mxCell>
        <mxCell id="bovtpuAGcGGz9S-_iwCI-42" value="" style="shape=partialRectangle;html=1;whiteSpace=wrap;connectable=0;fillColor=none;top=0;left=0;bottom=0;right=0;overflow=hidden;" vertex="1" parent="bovtpuAGcGGz9S-_iwCI-40">
          <mxGeometry x="177" width="176" height="80" as="geometry" />
        </mxCell>
        <mxCell id="bovtpuAGcGGz9S-_iwCI-43" value="" style="shape=partialRectangle;html=1;whiteSpace=wrap;connectable=0;fillColor=none;top=0;left=0;bottom=0;right=0;overflow=hidden;" vertex="1" parent="bovtpuAGcGGz9S-_iwCI-40">
          <mxGeometry x="353" width="177" height="80" as="geometry" />
        </mxCell>
        <mxCell id="bovtpuAGcGGz9S-_iwCI-44" value="" style="shape=image;html=1;verticalAlign=top;verticalLabelPosition=bottom;labelBackgroundColor=#ffffff;imageAspect=0;aspect=fixed;image=https://cdn3.iconfinder.com/data/icons/geek-3/24/Baby_Groot_guardians_of_galaxy_marvel_movie-128.png;strokeColor=#007FFF;fillColor=#FFE14A;" vertex="1" parent="1">
          <mxGeometry x="-150" y="720" width="70" height="70" as="geometry" />
        </mxCell>
        <mxCell id="bovtpuAGcGGz9S-_iwCI-45" value="" style="shape=image;html=1;verticalAlign=top;verticalLabelPosition=bottom;labelBackgroundColor=#ffffff;imageAspect=0;aspect=fixed;image=https://cdn3.iconfinder.com/data/icons/geek-3/24/Superman_sigil_logo_movie_dc_comics-128.png;strokeColor=#007FFF;fillColor=#FFE14A;" vertex="1" parent="1">
          <mxGeometry x="35" y="720" width="70" height="70" as="geometry" />
        </mxCell>
        <mxCell id="bovtpuAGcGGz9S-_iwCI-46" value="" style="shape=image;html=1;verticalAlign=top;verticalLabelPosition=bottom;labelBackgroundColor=#ffffff;imageAspect=0;aspect=fixed;image=https://cdn3.iconfinder.com/data/icons/geek-3/24/Batman_dc_comics_bat_movie-128.png;strokeColor=#007FFF;fillColor=#FFE14A;" vertex="1" parent="1">
          <mxGeometry x="210" y="720" width="70" height="70" as="geometry" />
        </mxCell>
        <mxCell id="bovtpuAGcGGz9S-_iwCI-47" value="" style="shape=image;html=1;verticalAlign=top;verticalLabelPosition=bottom;labelBackgroundColor=#ffffff;imageAspect=0;aspect=fixed;image=https://cdn3.iconfinder.com/data/icons/geek-3/24/Deathly_Hallows_harry_potter_movie_magic_rune-128.png;strokeColor=#007FFF;fillColor=#FFE14A;" vertex="1" parent="1">
          <mxGeometry x="-150" y="800" width="70" height="70" as="geometry" />
        </mxCell>
        <mxCell id="bovtpuAGcGGz9S-_iwCI-48" value="" style="shape=image;html=1;verticalAlign=top;verticalLabelPosition=bottom;labelBackgroundColor=#ffffff;imageAspect=0;aspect=fixed;image=https://cdn3.iconfinder.com/data/icons/geek-3/24/Decepticon_transformers_movie_robot-128.png;strokeColor=#007FFF;fillColor=#FFE14A;" vertex="1" parent="1">
          <mxGeometry x="30" y="800" width="70" height="70" as="geometry" />
        </mxCell>
        <mxCell id="bovtpuAGcGGz9S-_iwCI-49" value="" style="shape=image;html=1;verticalAlign=top;verticalLabelPosition=bottom;labelBackgroundColor=#ffffff;imageAspect=0;aspect=fixed;image=https://cdn3.iconfinder.com/data/icons/geek-3/24/Golden_Snitch_harry_potter_magic_movie-128.png;strokeColor=#007FFF;fillColor=#FFE14A;" vertex="1" parent="1">
          <mxGeometry x="210" y="800" width="70" height="70" as="geometry" />
        </mxCell>
        <mxCell id="bovtpuAGcGGz9S-_iwCI-50" value="" style="shape=image;html=1;verticalAlign=top;verticalLabelPosition=bottom;labelBackgroundColor=#ffffff;imageAspect=0;aspect=fixed;image=https://cdn3.iconfinder.com/data/icons/geek-3/24/Captain_America_Shield_marvel_movie_avengers-128.png;strokeColor=#007FFF;fillColor=#FFE14A;" vertex="1" parent="1">
          <mxGeometry x="-150" y="880" width="70" height="70" as="geometry" />
        </mxCell>
        <mxCell id="bovtpuAGcGGz9S-_iwCI-51" value="" style="shape=image;html=1;verticalAlign=top;verticalLabelPosition=bottom;labelBackgroundColor=#ffffff;imageAspect=0;aspect=fixed;image=https://cdn4.iconfinder.com/data/icons/avatars-xmas-giveaway/128/halloween_jason_friday_movie-128.png;strokeColor=#007FFF;fillColor=#FFE14A;" vertex="1" parent="1">
          <mxGeometry x="30" y="880" width="70" height="70" as="geometry" />
        </mxCell>
        <mxCell id="bovtpuAGcGGz9S-_iwCI-52" value="" style="shape=image;html=1;verticalAlign=top;verticalLabelPosition=bottom;labelBackgroundColor=#ffffff;imageAspect=0;aspect=fixed;image=https://cdn3.iconfinder.com/data/icons/geek-3/24/Flash_dc_comic_book_movie-128.png;strokeColor=#007FFF;fillColor=#FFE14A;" vertex="1" parent="1">
          <mxGeometry x="210" y="880" width="70" height="70" as="geometry" />
        </mxCell>
        <mxCell id="bovtpuAGcGGz9S-_iwCI-53" value="&lt;span style=&quot;color: rgb(102 , 102 , 102)&quot;&gt;Rental DVD Farley e Matheus&lt;/span&gt;" style="strokeWidth=1;shadow=0;dashed=0;align=center;html=1;shape=mxgraph.mockup.containers.window;align=left;verticalAlign=top;spacingLeft=8;strokeColor2=#008cff;strokeColor3=#c4c4c4;mainText=;fontSize=17;labelBackgroundColor=none;" vertex="1" parent="1">
          <mxGeometry x="-200" y="1150" width="550" height="380" as="geometry" />
        </mxCell>
        <mxCell id="bovtpuAGcGGz9S-_iwCI-55" value="" style="edgeStyle=segmentEdgeStyle;endArrow=classic;html=1;entryX=0.437;entryY=-0.009;entryDx=0;entryDy=0;entryPerimeter=0;exitX=0.44;exitY=0.999;exitDx=0;exitDy=0;exitPerimeter=0;" edge="1" parent="1" source="bovtpuAGcGGz9S-_iwCI-10" target="bovtpuAGcGGz9S-_iwCI-53">
          <mxGeometry width="50" height="50" relative="1" as="geometry">
            <mxPoint y="1100" as="sourcePoint" />
            <mxPoint x="50" y="1050" as="targetPoint" />
            <Array as="points">
              <mxPoint x="40" y="1020" />
            </Array>
          </mxGeometry>
        </mxCell>
        <mxCell id="bovtpuAGcGGz9S-_iwCI-56" value="" style="whiteSpace=wrap;html=1;aspect=fixed;fillColor=#1ba1e2;strokeColor=#006EAF;fontColor=#ffffff;" vertex="1" parent="1">
          <mxGeometry x="-165" y="1260" width="190" height="190" as="geometry" />
        </mxCell>
        <mxCell id="bovtpuAGcGGz9S-_iwCI-57" value="" style="shape=image;html=1;verticalAlign=top;verticalLabelPosition=bottom;labelBackgroundColor=#ffffff;imageAspect=0;aspect=fixed;image=https://cdn3.iconfinder.com/data/icons/geek-3/24/Superman_sigil_logo_movie_dc_comics-128.png;strokeColor=#007FFF;fillColor=#FFE14A;" vertex="1" parent="1">
          <mxGeometry x="-155" y="1250" width="180" height="180" as="geometry" />
        </mxCell>
        <mxCell id="bovtpuAGcGGz9S-_iwCI-58" value="" style="html=1;strokeWidth=1;shadow=0;dashed=0;shape=mxgraph.ios7ui.rrect;rSize=3;strokeColor=#0080F0;gradientColor=none;" vertex="1" parent="1">
          <mxGeometry x="-170" y="1190" width="510" height="60" as="geometry" />
        </mxCell>
        <mxCell id="bovtpuAGcGGz9S-_iwCI-59" value="ADD TO BASKET" style="strokeColor=#006EAF;fillColor=#1ba1e2;html=1;strokeWidth=1;shadow=0;dashed=0;shape=mxgraph.ios7ui.leftButton;rSize=3;fontSize=8;fontColor=#ffffff;" vertex="1" parent="bovtpuAGcGGz9S-_iwCI-58">
          <mxGeometry width="127.49999999999999" height="60" as="geometry" />
        </mxCell>
        <mxCell id="bovtpuAGcGGz9S-_iwCI-60" value="CREATE AN ACCOUNT" style="strokeColor=#006EAF;fillColor=#1ba1e2;html=1;strokeWidth=1;shadow=0;dashed=0;shape=mxgraph.ios7ui.rrect;rSize=0;fontSize=8;fontColor=#ffffff;" vertex="1" parent="bovtpuAGcGGz9S-_iwCI-58">
          <mxGeometry x="254.99999999999997" width="127.49999999999999" height="60" as="geometry" />
        </mxCell>
        <mxCell id="bovtpuAGcGGz9S-_iwCI-61" value="BACK TO MENU" style="strokeColor=#BD7000;fillColor=#f0a30a;html=1;strokeWidth=1;shadow=0;dashed=0;shape=mxgraph.ios7ui.rightButton;rSize=3;fontSize=8;fontColor=#ffffff;" vertex="1" parent="bovtpuAGcGGz9S-_iwCI-58">
          <mxGeometry x="382.5" width="127.49999999999999" height="60" as="geometry" />
        </mxCell>
        <mxCell id="bovtpuAGcGGz9S-_iwCI-62" value="BACK TO MOVIES" style="html=1;strokeWidth=1;shadow=0;dashed=0;shape=mxgraph.ios7ui.rrect;rSize=0;strokeColor=#006EAF;fillColor=#1ba1e2;fontColor=#ffffff;fontSize=8;" vertex="1" parent="bovtpuAGcGGz9S-_iwCI-58">
          <mxGeometry x="127.49999999999999" width="127.49999999999999" height="60" as="geometry" />
        </mxCell>
        <mxCell id="bovtpuAGcGGz9S-_iwCI-63" value="" style="html=1;strokeWidth=1;shadow=0;dashed=0;shape=mxgraph.ios7ui.rrect;rSize=3;strokeColor=#0080F0;gradientColor=none;" vertex="1" parent="1">
          <mxGeometry x="-184" y="650" width="524" height="51.15" as="geometry" />
        </mxCell>
        <mxCell id="bovtpuAGcGGz9S-_iwCI-64" value="NEW MOVIES" style="strokeColor=#006EAF;fillColor=#1ba1e2;html=1;strokeWidth=1;shadow=0;dashed=0;shape=mxgraph.ios7ui.leftButton;rSize=3;fontSize=8;fontColor=#ffffff;" vertex="1" parent="bovtpuAGcGGz9S-_iwCI-63">
          <mxGeometry width="131" height="50" as="geometry" />
        </mxCell>
        <mxCell id="bovtpuAGcGGz9S-_iwCI-65" value="COMMING SOON" style="strokeColor=#006EAF;fillColor=#1ba1e2;html=1;strokeWidth=1;shadow=0;dashed=0;shape=mxgraph.ios7ui.rrect;rSize=0;fontSize=8;fontColor=#ffffff;" vertex="1" parent="bovtpuAGcGGz9S-_iwCI-63">
          <mxGeometry x="262" width="131" height="50" as="geometry" />
        </mxCell>
        <mxCell id="bovtpuAGcGGz9S-_iwCI-66" value="Back to Menu" style="strokeColor=#BD7000;fillColor=#f0a30a;html=1;strokeWidth=1;shadow=0;dashed=0;shape=mxgraph.ios7ui.rightButton;rSize=3;fontSize=8;fontColor=#ffffff;" vertex="1" parent="bovtpuAGcGGz9S-_iwCI-63">
          <mxGeometry x="390" width="134" height="51.15" as="geometry" />
        </mxCell>
        <mxCell id="bovtpuAGcGGz9S-_iwCI-67" value="RENTED" style="html=1;strokeWidth=1;shadow=0;dashed=0;shape=mxgraph.ios7ui.rrect;rSize=0;strokeColor=#006EAF;fillColor=#1ba1e2;fontColor=#ffffff;fontSize=8;" vertex="1" parent="bovtpuAGcGGz9S-_iwCI-63">
          <mxGeometry x="131" width="131" height="50" as="geometry" />
        </mxCell>
        <mxCell id="bovtpuAGcGGz9S-_iwCI-73" value="" style="shape=rect;fillColor=#e0e0e0;strokeColor=none;" vertex="1" parent="1">
          <mxGeometry x="-4" y="980" width="164" height="20" as="geometry" />
        </mxCell>
        <mxCell id="bovtpuAGcGGz9S-_iwCI-74" value="" style="html=1;strokeWidth=1;shadow=0;dashed=0;shape=mxgraph.ios7ui.marginRect;rx=3;ry=3;rectMargin=5;strokeColor=none;" vertex="1" parent="bovtpuAGcGGz9S-_iwCI-73">
          <mxGeometry width="164" height="20" as="geometry" />
        </mxCell>
        <mxCell id="bovtpuAGcGGz9S-_iwCI-75" value="Search" style="shape=mxgraph.ios7.icons.looking_glass;strokeColor=#e0e0e0;fillColor=none;fontColor=#e0e0e0;labelPosition=right;verticalLabelPosition=middle;align=left;verticalAlign=middle;fontSize=6;fontStyle=0;spacingTop=2;" vertex="1" parent="bovtpuAGcGGz9S-_iwCI-73">
          <mxGeometry x="0.5" y="0.5" width="6" height="6" relative="1" as="geometry">
            <mxPoint x="-17" y="-3" as="offset" />
          </mxGeometry>
        </mxCell>
        <mxCell id="bovtpuAGcGGz9S-_iwCI-78" value="ABOUT THIS MOVIE" style="shape=rect;rounded=1;strokeColor=none;fillColor=#F6F6F8;gradientColor=none;shadow=0;glass=0;dashed=1;fontFamily=Helvetica;fontSize=7;fontColor=#333333;align=center;html=0;verticalAlign=top;whiteSpace=wrap;spacing=8;spacingTop=0;" vertex="1" parent="1">
          <mxGeometry x="43" y="1270" width="287" height="150" as="geometry" />
        </mxCell>
        <mxCell id="bovtpuAGcGGz9S-_iwCI-79" value="Close" style="shape=text;align=center;verticalAlign=middle;fontSize=8;fontColor=#0680FF;strokeColor=none;fillColor=none;spacingTop=3;resizeWidth=1;" vertex="1" parent="bovtpuAGcGGz9S-_iwCI-78">
          <mxGeometry y="1" width="287" height="20" relative="1" as="geometry">
            <mxPoint y="-20" as="offset" />
          </mxGeometry>
        </mxCell>
        <mxCell id="bovtpuAGcGGz9S-_iwCI-80" value="" style="shape=rect;shadow=0;" vertex="1" parent="1">
          <mxGeometry x="-160" y="1460" width="180" height="60" as="geometry" />
        </mxCell>
        <mxCell id="bovtpuAGcGGz9S-_iwCI-81" value="CHECKOUT" style="html=1;strokeWidth=1;shadow=0;dashed=0;rounded=1;absoluteArcSize=1;arcSize=6;fontColor=#0080F0;fontSize=7;fontSize=14;fillColor=#e0e0e0;strokeColor=none;fontStyle=1;" vertex="1" parent="bovtpuAGcGGz9S-_iwCI-80">
          <mxGeometry x="8.780487804878048" y="6" width="162.4390243902439" height="21" as="geometry" />
        </mxCell>
        <mxCell id="bovtpuAGcGGz9S-_iwCI-82" value="CANCEL" style="html=1;strokeWidth=1;shadow=0;dashed=0;rounded=1;absoluteArcSize=1;arcSize=6;fontColor=#0080F0;fontSize=7;fontSize=14;fillColor=#e0e0e0;strokeColor=none;fontStyle=1;" vertex="1" parent="bovtpuAGcGGz9S-_iwCI-80">
          <mxGeometry x="8.780487804878048" y="33" width="162.4390243902439" height="21" as="geometry" />
        </mxCell>
        <mxCell id="bovtpuAGcGGz9S-_iwCI-83" value="&lt;span style=&quot;color: rgb(102 , 102 , 102)&quot;&gt;Rental DVD Farley e Matheus&lt;/span&gt;" style="strokeWidth=1;shadow=0;dashed=0;align=center;html=1;shape=mxgraph.mockup.containers.window;align=left;verticalAlign=top;spacingLeft=8;strokeColor2=#008cff;strokeColor3=#c4c4c4;mainText=;fontSize=17;labelBackgroundColor=none;" vertex="1" parent="1">
          <mxGeometry x="-560" y="1610" width="550" height="430" as="geometry" />
        </mxCell>
        <mxCell id="bovtpuAGcGGz9S-_iwCI-86" value="" style="edgeStyle=segmentEdgeStyle;endArrow=classic;html=1;" edge="1" parent="1" source="bovtpuAGcGGz9S-_iwCI-82" target="bovtpuAGcGGz9S-_iwCI-4">
          <mxGeometry width="50" height="50" relative="1" as="geometry">
            <mxPoint x="-460" y="1470" as="sourcePoint" />
            <mxPoint x="-420" y="220" as="targetPoint" />
            <Array as="points">
              <mxPoint x="-420" y="1504" />
              <mxPoint x="-420" y="320" />
            </Array>
          </mxGeometry>
        </mxCell>
        <mxCell id="bovtpuAGcGGz9S-_iwCI-87" value="" style="edgeStyle=segmentEdgeStyle;endArrow=classic;html=1;entryX=0.497;entryY=-0.007;entryDx=0;entryDy=0;entryPerimeter=0;" edge="1" parent="1" source="bovtpuAGcGGz9S-_iwCI-81" target="bovtpuAGcGGz9S-_iwCI-83">
          <mxGeometry width="50" height="50" relative="1" as="geometry">
            <mxPoint x="-300" y="1600" as="sourcePoint" />
            <mxPoint x="-250" y="1550" as="targetPoint" />
          </mxGeometry>
        </mxCell>
        <mxCell id="bovtpuAGcGGz9S-_iwCI-88" value="" style="html=1;strokeWidth=1;shadow=0;dashed=0;shape=mxgraph.ios7ui.rrect;rSize=3;strokeColor=#0080F0;gradientColor=none;" vertex="1" parent="1">
          <mxGeometry x="-540" y="1650" width="510" height="60" as="geometry" />
        </mxCell>
        <mxCell id="bovtpuAGcGGz9S-_iwCI-89" value="BACK" style="strokeColor=#006EAF;fillColor=#1ba1e2;html=1;strokeWidth=1;shadow=0;dashed=0;shape=mxgraph.ios7ui.leftButton;rSize=3;fontSize=8;fontColor=#ffffff;" vertex="1" parent="bovtpuAGcGGz9S-_iwCI-88">
          <mxGeometry width="127.49999999999999" height="60" as="geometry" />
        </mxCell>
        <mxCell id="bovtpuAGcGGz9S-_iwCI-90" value="CREATE AN ACCOUNT" style="strokeColor=#006EAF;fillColor=#1ba1e2;html=1;strokeWidth=1;shadow=0;dashed=0;shape=mxgraph.ios7ui.rrect;rSize=0;fontSize=8;fontColor=#ffffff;" vertex="1" parent="bovtpuAGcGGz9S-_iwCI-88">
          <mxGeometry x="254.99999999999997" width="127.49999999999999" height="60" as="geometry" />
        </mxCell>
        <mxCell id="bovtpuAGcGGz9S-_iwCI-91" value="BACK TO MENU" style="strokeColor=#BD7000;fillColor=#f0a30a;html=1;strokeWidth=1;shadow=0;dashed=0;shape=mxgraph.ios7ui.rightButton;rSize=3;fontSize=8;fontColor=#ffffff;" vertex="1" parent="bovtpuAGcGGz9S-_iwCI-88">
          <mxGeometry x="382.5" width="127.49999999999999" height="60" as="geometry" />
        </mxCell>
        <mxCell id="bovtpuAGcGGz9S-_iwCI-92" value="BACK TO MOVIES" style="html=1;strokeWidth=1;shadow=0;dashed=0;shape=mxgraph.ios7ui.rrect;rSize=0;strokeColor=#006EAF;fillColor=#1ba1e2;fontColor=#ffffff;fontSize=8;" vertex="1" parent="bovtpuAGcGGz9S-_iwCI-88">
          <mxGeometry x="127.49999999999999" width="127.49999999999999" height="60" as="geometry" />
        </mxCell>
        <mxCell id="bovtpuAGcGGz9S-_iwCI-93" value="" style="edgeStyle=segmentEdgeStyle;endArrow=classic;html=1;entryX=0.586;entryY=0.999;entryDx=0;entryDy=0;entryPerimeter=0;" edge="1" parent="1" source="bovtpuAGcGGz9S-_iwCI-61" target="bovtpuAGcGGz9S-_iwCI-4">
          <mxGeometry width="50" height="50" relative="1" as="geometry">
            <mxPoint x="-370" y="1120" as="sourcePoint" />
            <mxPoint x="460" y="700" as="targetPoint" />
          </mxGeometry>
        </mxCell>
        <mxCell id="bovtpuAGcGGz9S-_iwCI-118" value="" style="strokeWidth=1;shadow=0;dashed=0;align=center;html=1;shape=mxgraph.mockup.forms.rrect;rSize=0;strokeColor=#999999;fillColor=#ffffff;" vertex="1" parent="1">
          <mxGeometry x="-540" y="1720" width="510" height="300" as="geometry" />
        </mxCell>
        <mxCell id="bovtpuAGcGGz9S-_iwCI-119" value="Sign In" style="strokeWidth=1;shadow=0;dashed=0;align=center;html=1;shape=mxgraph.mockup.forms.anchor;fontSize=12;fontColor=#666666;align=left;resizeWidth=1;spacingLeft=0;" vertex="1" parent="bovtpuAGcGGz9S-_iwCI-118">
          <mxGeometry width="254.99999999999997" height="20" relative="1" as="geometry">
            <mxPoint x="10" y="10" as="offset" />
          </mxGeometry>
        </mxCell>
        <mxCell id="bovtpuAGcGGz9S-_iwCI-120" value="" style="shape=line;strokeColor=#ddeeff;strokeWidth=2;html=1;resizeWidth=1;" vertex="1" parent="bovtpuAGcGGz9S-_iwCI-118">
          <mxGeometry width="458.99999999999994" height="10" relative="1" as="geometry">
            <mxPoint x="10" y="30" as="offset" />
          </mxGeometry>
        </mxCell>
        <mxCell id="bovtpuAGcGGz9S-_iwCI-121" value="User Name:" style="strokeWidth=1;shadow=0;dashed=0;align=center;html=1;shape=mxgraph.mockup.forms.anchor;fontSize=12;fontColor=#666666;align=left;resizeWidth=1;spacingLeft=0;" vertex="1" parent="bovtpuAGcGGz9S-_iwCI-118">
          <mxGeometry width="254.99999999999997" height="20" relative="1" as="geometry">
            <mxPoint x="10" y="40" as="offset" />
          </mxGeometry>
        </mxCell>
        <mxCell id="bovtpuAGcGGz9S-_iwCI-122" value="johndoe" style="strokeWidth=1;shadow=0;dashed=0;align=center;html=1;shape=mxgraph.mockup.forms.rrect;rSize=0;strokeColor=#999999;fontColor=#666666;align=left;spacingLeft=5;resizeWidth=1;" vertex="1" parent="bovtpuAGcGGz9S-_iwCI-118">
          <mxGeometry width="382.49999999999994" height="25" relative="1" as="geometry">
            <mxPoint x="10" y="60" as="offset" />
          </mxGeometry>
        </mxCell>
        <mxCell id="bovtpuAGcGGz9S-_iwCI-123" value="Password:" style="strokeWidth=1;shadow=0;dashed=0;align=center;html=1;shape=mxgraph.mockup.forms.anchor;fontSize=12;fontColor=#666666;align=left;resizeWidth=1;spacingLeft=0;" vertex="1" parent="bovtpuAGcGGz9S-_iwCI-118">
          <mxGeometry width="254.99999999999997" height="20" relative="1" as="geometry">
            <mxPoint x="10" y="95" as="offset" />
          </mxGeometry>
        </mxCell>
        <mxCell id="bovtpuAGcGGz9S-_iwCI-124" value="********" style="strokeWidth=1;shadow=0;dashed=0;align=center;html=1;shape=mxgraph.mockup.forms.rrect;rSize=0;strokeColor=#999999;fontColor=#666666;align=left;spacingLeft=5;resizeWidth=1;" vertex="1" parent="bovtpuAGcGGz9S-_iwCI-118">
          <mxGeometry width="382.49999999999994" height="25" relative="1" as="geometry">
            <mxPoint x="10" y="115" as="offset" />
          </mxGeometry>
        </mxCell>
        <mxCell id="bovtpuAGcGGz9S-_iwCI-125" value="SIGN IN" style="strokeWidth=1;shadow=0;dashed=0;align=center;html=1;shape=mxgraph.mockup.forms.rrect;rSize=5;strokeColor=none;fontColor=#ffffff;fillColor=#66bbff;fontSize=16;fontStyle=1;" vertex="1" parent="bovtpuAGcGGz9S-_iwCI-118">
          <mxGeometry y="1" width="80" height="30" relative="1" as="geometry">
            <mxPoint x="20" y="-150" as="offset" />
          </mxGeometry>
        </mxCell>
        <mxCell id="bovtpuAGcGGz9S-_iwCI-126" value="Forgot Password?" style="strokeWidth=1;shadow=0;dashed=0;align=center;html=1;shape=mxgraph.mockup.forms.anchor;fontSize=12;fontColor=#9999ff;align=left;spacingLeft=0;fontStyle=4;resizeWidth=1;" vertex="1" parent="bovtpuAGcGGz9S-_iwCI-118">
          <mxGeometry y="1" width="382.49999999999994" height="20" relative="1" as="geometry">
            <mxPoint x="10" y="-110" as="offset" />
          </mxGeometry>
        </mxCell>
        <mxCell id="bovtpuAGcGGz9S-_iwCI-127" value="" style="shape=line;strokeColor=#ddeeff;strokeWidth=2;html=1;resizeWidth=1;" vertex="1" parent="bovtpuAGcGGz9S-_iwCI-118">
          <mxGeometry y="1" width="458.99999999999994" height="10" relative="1" as="geometry">
            <mxPoint x="10" y="-90" as="offset" />
          </mxGeometry>
        </mxCell>
        <mxCell id="bovtpuAGcGGz9S-_iwCI-128" value="New User" style="strokeWidth=1;shadow=0;dashed=0;align=center;html=1;shape=mxgraph.mockup.forms.anchor;fontSize=12;fontColor=#666666;align=left;spacingLeft=0;resizeWidth=1;" vertex="1" parent="bovtpuAGcGGz9S-_iwCI-118">
          <mxGeometry y="1" width="382.49999999999994" height="20" relative="1" as="geometry">
            <mxPoint x="10" y="-70" as="offset" />
          </mxGeometry>
        </mxCell>
        <mxCell id="bovtpuAGcGGz9S-_iwCI-129" value="SIGN UP" style="strokeWidth=1;shadow=0;dashed=0;align=center;html=1;shape=mxgraph.mockup.forms.rrect;rSize=5;strokeColor=none;fontColor=#ffffff;fillColor=#66bbff;fontSize=16;fontStyle=1;" vertex="1" parent="bovtpuAGcGGz9S-_iwCI-118">
          <mxGeometry y="1" width="80" height="30" relative="1" as="geometry">
            <mxPoint x="20" y="-50" as="offset" />
          </mxGeometry>
        </mxCell>
        <mxCell id="bovtpuAGcGGz9S-_iwCI-132" value="" style="edgeStyle=segmentEdgeStyle;endArrow=classic;html=1;" edge="1" parent="1" source="bovtpuAGcGGz9S-_iwCI-89" target="bovtpuAGcGGz9S-_iwCI-53">
          <mxGeometry width="50" height="50" relative="1" as="geometry">
            <mxPoint x="-610" y="1480" as="sourcePoint" />
            <mxPoint x="-210" y="1400" as="targetPoint" />
            <Array as="points">
              <mxPoint x="-476" y="1400" />
            </Array>
          </mxGeometry>
        </mxCell>
        <mxCell id="bovtpuAGcGGz9S-_iwCI-134" value="" style="edgeStyle=segmentEdgeStyle;endArrow=classic;html=1;" edge="1" parent="1" source="bovtpuAGcGGz9S-_iwCI-92" target="bovtpuAGcGGz9S-_iwCI-10">
          <mxGeometry width="50" height="50" relative="1" as="geometry">
            <mxPoint x="-590" y="830" as="sourcePoint" />
            <mxPoint x="-540" y="780" as="targetPoint" />
            <Array as="points">
              <mxPoint x="-349" y="1550" />
              <mxPoint x="-540" y="1550" />
              <mxPoint x="-540" y="815" />
            </Array>
          </mxGeometry>
        </mxCell>
        <mxCell id="bovtpuAGcGGz9S-_iwCI-135" value="" style="strokeWidth=1;shadow=0;dashed=0;align=center;html=1;shape=mxgraph.mockup.containers.browserWindow;rSize=0;strokeColor2=#008cff;strokeColor3=#c4c4c4;mainText=,;recursiveResize=0;" vertex="1" parent="1">
          <mxGeometry x="-1300" y="1090" width="630" height="380" as="geometry" />
        </mxCell>
        <mxCell id="bovtpuAGcGGz9S-_iwCI-136" value="Page 1" style="strokeWidth=1;shadow=0;dashed=0;align=center;html=1;shape=mxgraph.mockup.containers.anchor;fontSize=17;fontColor=#666666;align=left;" vertex="1" parent="bovtpuAGcGGz9S-_iwCI-135">
          <mxGeometry x="60" y="12" width="110" height="26" as="geometry" />
        </mxCell>
        <mxCell id="bovtpuAGcGGz9S-_iwCI-137" value="https://www.draw.io" style="strokeWidth=1;shadow=0;dashed=0;align=center;html=1;shape=mxgraph.mockup.containers.anchor;rSize=0;fontSize=17;fontColor=#666666;align=left;" vertex="1" parent="bovtpuAGcGGz9S-_iwCI-135">
          <mxGeometry x="130" y="60" width="250" height="26" as="geometry" />
        </mxCell>
        <mxCell id="bovtpuAGcGGz9S-_iwCI-140" value="Email" style="fillColor=none;strokeColor=none;align=left;fontSize=16;fontColor=#212529;" vertex="1" parent="bovtpuAGcGGz9S-_iwCI-135">
          <mxGeometry x="20" y="176" width="200" height="30" as="geometry" />
        </mxCell>
        <mxCell id="bovtpuAGcGGz9S-_iwCI-141" value="" style="html=1;shadow=0;dashed=0;shape=mxgraph.bootstrap.rrect;rSize=5;fillColor=none;strokeColor=#999999;align=left;spacing=15;fontSize=14;fontColor=#6C767D;" vertex="1" parent="bovtpuAGcGGz9S-_iwCI-135">
          <mxGeometry x="120" y="172" width="460" height="38" as="geometry" />
        </mxCell>
        <mxCell id="bovtpuAGcGGz9S-_iwCI-142" value="PassWord" style="fillColor=none;strokeColor=none;align=left;fontSize=16;fontColor=#212529;" vertex="1" parent="bovtpuAGcGGz9S-_iwCI-135">
          <mxGeometry x="10" y="221" width="200" height="40" as="geometry" />
        </mxCell>
        <mxCell id="bovtpuAGcGGz9S-_iwCI-143" value="" style="html=1;shadow=0;dashed=0;shape=mxgraph.bootstrap.rrect;rSize=5;fillColor=none;strokeColor=#999999;align=left;spacing=15;fontSize=16;fontColor=#6C767D;" vertex="1" parent="bovtpuAGcGGz9S-_iwCI-135">
          <mxGeometry x="120" y="221" width="460" height="40" as="geometry" />
        </mxCell>
        <mxCell id="bovtpuAGcGGz9S-_iwCI-145" value="First name" style="html=1;shadow=0;dashed=0;shape=mxgraph.bootstrap.rrect;rSize=5;fillColor=none;strokeColor=#999999;align=left;spacing=15;fontSize=14;fontColor=#6C767D;" vertex="1" parent="bovtpuAGcGGz9S-_iwCI-135">
          <mxGeometry x="120" y="120" width="190" height="40" as="geometry" />
        </mxCell>
        <mxCell id="bovtpuAGcGGz9S-_iwCI-146" value="Last name" style="html=1;shadow=0;dashed=0;shape=mxgraph.bootstrap.rrect;rSize=5;fillColor=none;strokeColor=#999999;align=left;spacing=15;fontSize=14;fontColor=#6C767D;" vertex="1" parent="bovtpuAGcGGz9S-_iwCI-135">
          <mxGeometry x="360" y="120" width="220" height="40" as="geometry" />
        </mxCell>
        <mxCell id="bovtpuAGcGGz9S-_iwCI-151" value="SUBMIT" style="html=1;shadow=0;dashed=0;shape=mxgraph.bootstrap.rrect;rSize=5;fillColor=#0085FC;strokeColor=none;align=center;spacing=15;fontSize=14;fontColor=#ffffff;" vertex="1" parent="bovtpuAGcGGz9S-_iwCI-135">
          <mxGeometry x="90" y="280" width="260" height="50" as="geometry" />
        </mxCell>
        <mxCell id="bovtpuAGcGGz9S-_iwCI-156" value="MOVIES" style="html=1;shadow=0;dashed=0;shape=mxgraph.bootstrap.rrect;rSize=5;fillColor=#0085FC;strokeColor=none;align=center;spacing=15;fontSize=14;fontColor=#ffffff;" vertex="1" parent="bovtpuAGcGGz9S-_iwCI-135">
          <mxGeometry x="390" y="280" width="200" height="50" as="geometry" />
        </mxCell>
        <mxCell id="bovtpuAGcGGz9S-_iwCI-157" value="" style="edgeStyle=segmentEdgeStyle;endArrow=classic;html=1;fontSize=16;entryX=-0.006;entryY=0.782;entryDx=0;entryDy=0;entryPerimeter=0;" edge="1" parent="1" source="bovtpuAGcGGz9S-_iwCI-156" target="bovtpuAGcGGz9S-_iwCI-10">
          <mxGeometry width="50" height="50" relative="1" as="geometry">
            <mxPoint x="-690" y="1050" as="sourcePoint" />
            <mxPoint x="-640" y="1000" as="targetPoint" />
            <Array as="points">
              <mxPoint x="-570" y="1385" />
              <mxPoint x="-570" y="931" />
            </Array>
          </mxGeometry>
        </mxCell>
        <mxCell id="bovtpuAGcGGz9S-_iwCI-159" value="" style="edgeStyle=segmentEdgeStyle;endArrow=classic;html=1;fontSize=16;entryX=0.404;entryY=1;entryDx=0;entryDy=0;entryPerimeter=0;" edge="1" parent="1" source="bovtpuAGcGGz9S-_iwCI-66" target="bovtpuAGcGGz9S-_iwCI-4">
          <mxGeometry width="50" height="50" relative="1" as="geometry">
            <mxPoint x="310" y="600" as="sourcePoint" />
            <mxPoint x="360" y="550" as="targetPoint" />
          </mxGeometry>
        </mxCell>
        <mxCell id="bovtpuAGcGGz9S-_iwCI-160" value="" style="edgeStyle=segmentEdgeStyle;endArrow=classic;html=1;fontSize=16;entryX=0.956;entryY=1.002;entryDx=0;entryDy=0;entryPerimeter=0;" edge="1" parent="1" source="bovtpuAGcGGz9S-_iwCI-129" target="bovtpuAGcGGz9S-_iwCI-135">
          <mxGeometry width="50" height="50" relative="1" as="geometry">
            <mxPoint x="-720" y="1810" as="sourcePoint" />
            <mxPoint x="-670" y="1760" as="targetPoint" />
          </mxGeometry>
        </mxCell>
      </root>
    </mxGraphModel>
  </diagram>
</mxfile>
